<svg width="100" height="100" viewBox="0 0 100 100" fill="none" xmlns="http://www.w3.org/2000/svg">
<path d="M25 16.3333V8.5H32.3333V16.3333V16.8333H32.8333H66.1667H66.6667V16.3333V8.5H74V16.3333V16.8333H74.5H78.6667C80.8245 16.8333 82.6602 17.5965 84.2006 19.1369C85.741 20.6773 86.5026 22.5114 86.5 24.6661V24.6667V83C86.5 85.1582 85.738 86.9939 84.2003 88.5342C82.6631 90.0741 80.8279 90.836 78.6673 90.8333H78.6667H20.3333C18.1752 90.8333 16.341 90.0714 14.8036 88.534C13.2662 86.9966 12.5027 85.1609 12.5 82.9997V24.6667C12.5 22.5088 13.2631 20.6747 14.8033 19.1372C16.3439 17.5992 18.1785 16.8359 20.3339 16.8333H24.5H25V16.3333ZM87 24.6667V83C87 85.2917 86.1847 87.2542 84.5542 88.8875C82.9236 90.5208 80.9611 91.3361 78.6667 91.3333L87 24.6667ZM19.8333 83V83.5H20.3333H78.6667H79.1667V83V41.3333V40.8333H78.6667H20.3333H19.8333V41.3333V83ZM59.9167 74.1667C57.129 74.1667 54.792 73.2099 52.8744 71.2923C50.9568 69.3747 50 67.0376 50 64.25C50 61.4624 50.9568 59.1253 52.8744 57.2077C54.792 55.2901 57.129 54.3333 59.9167 54.3333C62.7043 54.3333 65.0413 55.2901 66.9589 57.2077C68.8766 59.1253 69.8333 61.4624 69.8333 64.25C69.8333 67.0376 68.8766 69.3747 66.9589 71.2923C65.0413 73.2099 62.7043 74.1667 59.9167 74.1667Z" fill="#FFD803" stroke="black"/>
</svg>
